<svg width="446" height="144" viewBox="0 0 446 144" fill="none" xmlns="http://www.w3.org/2000/svg">
<mask id="mask0" mask-type="alpha" maskUnits="userSpaceOnUse" x="0" y="3" width="87" height="141">
<path d="M0 98.8189V10.5466V10.2416C0 5.8829 0 3.70354 1.3094 3.16117C2.6188 2.6188 4.15984 4.15984 7.24193 7.24193L32.6364 32.6364C33.2494 33.2494 33.556 33.556 33.7174 33.9458C33.8789 34.3356 33.8789 34.7691 33.8789 35.6361V86.0922C33.8789 86.9592 33.8789 87.3927 34.0403 87.7825C34.2018 88.1723 34.5083 88.4789 35.1214 89.0919L40.4242 94.3947C41.8383 95.8088 42.5453 96.5158 43.4239 96.5158C44.3025 96.5158 45.0095 95.8088 46.4236 94.3947L51.7264 89.0919C52.3395 88.4789 52.646 88.1723 52.8074 87.7825C52.9689 87.3927 52.9689 86.9592 52.9689 86.0922V50.4655C52.9689 49.0808 52.9689 48.3884 53.3309 47.8511C53.693 47.3138 54.3346 47.0538 55.6179 46.5338L81.0124 36.2435C83.6548 35.1727 84.976 34.6374 85.9119 35.268C86.8478 35.8985 86.8478 37.3241 86.8478 40.1752V98.8189C86.8478 99.6859 86.8478 100.119 86.6863 100.509C86.5249 100.899 86.2183 101.206 85.6053 101.819L46.4236 141C45.0095 142.414 44.3025 143.121 43.4239 143.121C42.5453 143.121 41.8383 142.414 40.4242 141L1.24252 101.819C0.629453 101.206 0.32292 100.899 0.16146 100.509C0 100.119 0 99.6859 0 98.8189Z" fill="#00D8BE"/>
</mask>
<g mask="url(#mask0)">
<path d="M0 100.576V10.5466V0L33.8789 33.8789V87.8494L43.4239 97.3944L52.9689 87.8494V47.6072L86.8478 33.8789V100.576L43.4239 144L0 100.576Z" fill="#D8B500"/>
<path d="M0 100.576V10.5466V0L33.8789 33.8789V87.8494L43.4239 97.3944L52.9689 87.8494V47.6072L86.8478 33.8789V100.576L43.4239 144L0 100.576Z" fill="url(#paint0_linear)"/>
<path d="M86.8476 54.0664L52.9688 87.8494V47.6072L86.8476 33.8789V54.0664Z" fill="#847B12"/>
<path d="M86.8476 54.0664L52.9688 87.8494V47.6072L86.8476 33.8789V54.0664Z" fill="url(#paint1_linear)"/>
</g>
<path d="M194.942 27.4355L153.917 119.174L112.891 27.4355H117.197L154.276 110.084L190.875 27.4355H194.942ZM214.114 118.457C209.01 118.457 204.266 117.181 199.88 114.629C195.495 112.077 192.026 108.649 189.475 104.343C186.923 99.9573 185.647 95.2528 185.647 90.2292C185.647 85.2057 186.923 80.5411 189.475 76.2352C192.026 71.8496 195.495 68.381 199.88 65.8294C204.266 63.2778 209.01 62.0019 214.114 62.0019C219.297 62.0019 224.201 63.3974 228.825 66.1882C233.45 68.8993 236.68 72.4476 238.514 76.8332V63.3176H242.341V117.141H238.514V103.745C236.361 108.21 233.012 111.798 228.467 114.51C224.001 117.141 219.217 118.457 214.114 118.457ZM214.353 115.108C218.739 115.108 222.805 113.991 226.553 111.759C230.301 109.446 233.251 106.416 235.404 102.668C237.636 98.841 238.753 94.6946 238.753 90.2292C238.753 85.8437 237.636 81.7371 235.404 77.9097C233.171 74.0823 230.181 71.0522 226.433 68.8196C222.686 66.5072 218.619 65.3509 214.233 65.3509C209.848 65.3509 205.741 66.5072 201.914 68.8196C198.166 71.132 195.136 74.2019 192.824 78.0293C190.591 81.8567 189.475 85.9633 189.475 90.3489C189.475 94.7345 190.591 98.841 192.824 102.668C195.136 106.416 198.206 109.446 202.033 111.759C205.861 113.991 209.967 115.108 214.353 115.108ZM257.438 63.3176H261.265V75.2783C263.019 71.2914 266.01 68.1019 270.236 65.7098C274.462 63.2379 279.126 62.0019 284.23 62.0019C290.848 62.0019 296.071 64.115 299.898 68.3411C303.805 72.4875 305.759 78.3084 305.759 85.8038V117.141H301.932V85.8038C301.932 79.345 300.337 74.3215 297.147 70.7333C294.038 67.1451 289.652 65.3509 283.991 65.3509C279.844 65.3509 276.017 66.3078 272.508 68.2215C269.079 70.0555 266.329 72.6071 264.255 75.8764C262.262 79.1456 261.265 82.8535 261.265 86.9999V117.141H257.438V63.3176ZM320.862 63.3176H324.69V75.2783C326.444 71.2914 329.434 68.1019 333.66 65.7098C337.886 63.2379 342.551 62.0019 347.654 62.0019C354.272 62.0019 359.495 64.115 363.323 68.3411C367.23 72.4875 369.184 78.3084 369.184 85.8038V117.141H365.356V85.8038C365.356 79.345 363.761 74.3215 360.572 70.7333C357.462 67.1451 353.076 65.3509 347.415 65.3509C343.269 65.3509 339.441 66.3078 335.933 68.2215C332.504 70.0555 329.753 72.6071 327.68 75.8764C325.686 79.1456 324.69 82.8535 324.69 86.9999V117.141H320.862V63.3176ZM409.643 118.457C404.54 118.457 399.796 117.181 395.41 114.629C391.025 112.077 387.556 108.649 385.004 104.343C382.453 99.9573 381.177 95.2528 381.177 90.2292C381.177 85.2057 382.453 80.5411 385.004 76.2352C387.556 71.8496 391.025 68.381 395.41 65.8294C399.796 63.2778 404.54 62.0019 409.643 62.0019C414.826 62.0019 419.73 63.3974 424.355 66.1882C428.98 68.8993 432.209 72.4476 434.043 76.8332V63.3176H437.871V117.141H434.043V103.745C431.89 108.21 428.541 111.798 423.996 114.51C419.531 117.141 414.747 118.457 409.643 118.457ZM409.883 115.108C414.268 115.108 418.335 113.991 422.083 111.759C425.83 109.446 428.781 106.416 430.934 102.668C433.166 98.841 434.283 94.6946 434.283 90.2292C434.283 85.8437 433.166 81.7371 430.934 77.9097C428.701 74.0823 425.711 71.0522 421.963 68.8196C418.215 66.5072 414.149 65.3509 409.763 65.3509C405.377 65.3509 401.271 66.5072 397.444 68.8196C393.696 71.132 390.666 74.2019 388.353 78.0293C386.121 81.8567 385.004 85.9633 385.004 90.3489C385.004 94.7345 386.121 98.841 388.353 102.668C390.666 106.416 393.736 109.446 397.563 111.759C401.391 113.991 405.497 115.108 409.883 115.108Z" fill="#231F20"/>
<defs>
<linearGradient id="paint0_linear" x1="43.4239" y1="0" x2="43.4239" y2="144" gradientUnits="userSpaceOnUse">
<stop stop-color="#FFEB85"/>
<stop offset="1" stop-color="white" stop-opacity="0"/>
</linearGradient>
<linearGradient id="paint1_linear" x1="69.9082" y1="33.8789" x2="69.9082" y2="87.8494" gradientUnits="userSpaceOnUse">
<stop stop-opacity="0.26"/>
<stop offset="1" stop-color="#5A540C" stop-opacity="0.18"/>
</linearGradient>
</defs>
</svg>
